<svg width="22" height="22" viewBox="0 0 22 22" fill="none" xmlns="http://www.w3.org/2000/svg">
<g clip-path="url(#clip0_9_2294)">
<path d="M13.1055 11C13.1055 12.1628 12.1628 13.1055 11 13.1055C9.83716 13.1055 8.89453 12.1628 8.89453 11C8.89453 9.83716 9.83716 8.89453 11 8.89453C12.1628 8.89453 13.1055 9.83716 13.1055 11Z" fill="#3EA4A6"/>
<path d="M15.9239 7.27483C15.8227 7.00056 15.6612 6.75232 15.4514 6.54855C15.2476 6.33875 14.9996 6.17728 14.7251 6.07607C14.5026 5.98962 14.1682 5.88673 13.5524 5.8587C12.8862 5.82832 12.6865 5.82178 10.9999 5.82178C9.31325 5.82178 9.11351 5.82816 8.44749 5.85854C7.83167 5.88673 7.49715 5.98962 7.27475 6.07607C7.00032 6.17728 6.75208 6.33875 6.54848 6.54855C6.33867 6.75232 6.1772 7.0004 6.07582 7.27483C5.98938 7.49739 5.88649 7.83191 5.85846 8.44774C5.82808 9.11375 5.82153 9.31349 5.82153 11.0002C5.82153 12.6867 5.82808 12.8864 5.85846 13.5526C5.88649 14.1685 5.98938 14.5028 6.07582 14.7254C6.1772 14.9998 6.3385 15.2479 6.54831 15.4516C6.75208 15.6615 7.00015 15.8229 7.27458 15.9241C7.49715 16.0107 7.83167 16.1136 8.44749 16.1417C9.11351 16.172 9.31308 16.1784 10.9998 16.1784C12.6866 16.1784 12.8864 16.172 13.5522 16.1417C14.168 16.1136 14.5026 16.0107 14.7251 15.9241C15.276 15.7116 15.7114 15.2762 15.9239 14.7254C16.0103 14.5028 16.1132 14.1685 16.1414 13.5526C16.1718 12.8864 16.1782 12.6867 16.1782 11.0002C16.1782 9.31349 16.1718 9.11375 16.1414 8.44774C16.1134 7.83191 16.0105 7.49739 15.9239 7.27483ZM10.9999 14.2435C9.20851 14.2435 7.7563 12.7914 7.7563 11C7.7563 9.20859 9.20851 7.75655 10.9999 7.75655C12.7912 7.75655 14.2434 9.20859 14.2434 11C14.2434 12.7914 12.7912 14.2435 10.9999 14.2435ZM14.3716 8.38631C13.953 8.38631 13.6136 8.04692 13.6136 7.62831C13.6136 7.2097 13.953 6.87032 14.3716 6.87032C14.7903 6.87032 15.1296 7.2097 15.1296 7.62831C15.1295 8.04692 14.7903 8.38631 14.3716 8.38631Z" fill="#3EA4A6"/>
<path d="M11 0C4.9258 0 0 4.9258 0 11C0 17.0742 4.9258 22 11 22C17.0742 22 22 17.0742 22 11C22 4.9258 17.0742 0 11 0ZM17.2783 13.6041C17.2478 14.2765 17.1408 14.7356 16.9847 15.1374C16.6566 15.9859 15.9859 16.6566 15.1374 16.9847C14.7358 17.1408 14.2765 17.2476 13.6043 17.2783C12.9307 17.309 12.7156 17.3164 11.0002 17.3164C9.28461 17.3164 9.0696 17.309 8.39586 17.2783C7.72363 17.2476 7.2644 17.1408 6.86275 16.9847C6.44112 16.8261 6.05943 16.5775 5.74388 16.2561C5.42262 15.9407 5.17404 15.5589 5.01543 15.1374C4.85933 14.7358 4.75241 14.2765 4.72186 13.6043C4.69081 12.9306 4.68359 12.7154 4.68359 11C4.68359 9.28461 4.69081 9.06943 4.72169 8.39586C4.75224 7.72346 4.85899 7.2644 5.01509 6.86258C5.17371 6.44112 5.42245 6.05927 5.74388 5.74388C6.05927 5.42245 6.44112 5.17387 6.86258 5.01526C7.2644 4.85916 7.72346 4.75241 8.39586 4.72169C9.06943 4.69098 9.28461 4.68359 11 4.68359C12.7154 4.68359 12.9306 4.69098 13.6041 4.72186C14.2765 4.75241 14.7356 4.85916 15.1374 5.01509C15.5589 5.17371 15.9407 5.42245 16.2563 5.74388C16.5775 6.05943 16.8263 6.44112 16.9847 6.86258C17.141 7.2644 17.2478 7.72346 17.2785 8.39586C17.3092 9.06943 17.3164 9.28461 17.3164 11C17.3164 12.7154 17.3092 12.9306 17.2783 13.6041Z" fill="#3EA4A6"/>
</g>
<defs>
<clipPath id="clip0_9_2294">
<rect width="22" height="22" fill="white"/>
</clipPath>
</defs>
</svg>
