<svg width="14" height="14" viewBox="0 0 14 14" fill="none" xmlns="http://www.w3.org/2000/svg">
<g clip-path="url(#clip0_9_2309)">
<path d="M10.2103 0H3.78967C1.70001 0 0 1.70001 0 3.78967V10.2104C0 12.3 1.70001 14 3.78967 14H10.2104C12.3 14 14 12.3 14 10.2104V3.78967C14 1.70001 12.3 0 10.2103 0ZM13.1792 10.2104C13.1792 11.8474 11.8474 13.1792 10.2103 13.1792H3.78967C2.15257 13.1792 0.820738 11.8474 0.820738 10.2104V3.78967C0.820738 2.15257 2.15257 0.820738 3.78967 0.820738H10.2104C11.8474 0.820738 13.1792 2.15257 13.1792 3.78967V10.2104Z" fill="white"/>
<path d="M6.99989 3.17188C4.88908 3.17188 3.17188 4.88908 3.17188 6.99989C3.17188 9.11069 4.88908 10.8279 6.99989 10.8279C9.11069 10.8279 10.8279 9.11069 10.8279 6.99989C10.8279 4.88908 9.11069 3.17188 6.99989 3.17188ZM6.99989 10.0072C5.34175 10.0072 3.99261 8.65813 3.99261 6.99989C3.99261 5.34175 5.34175 3.99261 6.99989 3.99261C8.65813 3.99261 10.0072 5.34175 10.0072 6.99989C10.0072 8.65813 8.65813 10.0072 6.99989 10.0072Z" fill="white"/>
<path d="M10.9195 1.8125C10.2957 1.8125 9.78833 2.31996 9.78833 2.94363C9.78833 3.56741 10.2957 4.07487 10.9195 4.07487C11.5432 4.07487 12.0507 3.56741 12.0507 2.94363C12.0507 2.31985 11.5432 1.8125 10.9195 1.8125ZM10.9195 3.25403C10.7484 3.25403 10.6091 3.11474 10.6091 2.94363C10.6091 2.77241 10.7484 2.63324 10.9195 2.63324C11.0907 2.63324 11.23 2.77241 11.23 2.94363C11.23 3.11474 11.0907 3.25403 10.9195 3.25403Z" fill="white"/>
</g>
<defs>
<clipPath id="clip0_9_2309">
<rect width="14" height="14" fill="white"/>
</clipPath>
</defs>
</svg>
