<svg width="18" height="18" viewBox="0 0 18 18" fill="none" xmlns="http://www.w3.org/2000/svg">
<circle cx="9" cy="9" r="9" fill="#3EA4A6"/>
<path d="M9 4C6.79467 4 5 5.86358 5 8.15479C5 11.4103 8.624 14.7718 8.77822 14.9129C8.84178 14.9711 8.92089 15 9 15C9.07911 15 9.15822 14.9711 9.22178 14.9134C9.376 14.7718 13 11.4103 13 8.15479C13 5.86358 11.2053 4 9 4ZM9 10.4167C7.77467 10.4167 6.77778 9.38863 6.77778 8.125C6.77778 6.86138 7.77467 5.83333 9 5.83333C10.2253 5.83333 11.2222 6.86138 11.2222 8.125C11.2222 9.38863 10.2253 10.4167 9 10.4167Z" fill="white"/>
</svg>
