<svg width="18" height="18" viewBox="0 0 18 18" fill="none" xmlns="http://www.w3.org/2000/svg">
<g clip-path="url(#clip0_147_2778)">
<path fill-rule="evenodd" clip-rule="evenodd" d="M9 0C13.9706 0 18 4.02943 18 9C18 13.9706 13.9706 18 9 18C4.02943 18 0 13.9706 0 9C0 4.02943 4.02943 0 9 0ZM14.7129 12.4889V5.80001L11.3682 9.14446L14.7129 12.4889ZM4.00163 12.6252H13.9986L10.9432 9.56985L9.77875 10.7342C9.72229 10.7905 9.64579 10.8221 9.56605 10.822H8.43402C8.39453 10.8221 8.35541 10.8143 8.31891 10.7993C8.28241 10.7842 8.24924 10.7621 8.22129 10.7342L7.05684 9.56985L4.00148 12.6252H4.00163ZM3.28711 5.7998V12.4891L6.63177 9.14446L3.28711 5.7998ZM14.2877 5.37479H3.7125L8.55858 10.2209H9.4416L14.2877 5.37479Z" fill="#3EA4A6"/>
</g>
<defs>
<clipPath id="clip0_147_2778">
<rect width="18" height="18" fill="white"/>
</clipPath>
</defs>
</svg>
