<svg width="32" height="32" viewBox="0 0 32 32" fill="none" xmlns="http://www.w3.org/2000/svg">
<path d="M16 1C13.0333 1 10.1332 1.87973 7.66645 3.52796C5.19972 5.17618 3.27713 7.51886 2.14181 10.2597C1.0065 13.0006 0.709449 16.0166 1.28823 18.9264C1.86701 21.8361 3.29562 24.5088 5.3934 26.6066C7.49119 28.7044 10.1639 30.133 13.0737 30.7118C15.9834 31.2906 18.9994 30.9935 21.7403 29.8582C24.4811 28.7229 26.8238 26.8003 28.472 24.3336C30.1203 21.8668 31 18.9667 31 16C30.9955 12.0231 29.4137 8.21044 26.6016 5.39837C23.7896 2.5863 19.9769 1.0045 16 1ZM16 24C15.8022 24 15.6089 23.9414 15.4444 23.8315C15.28 23.7216 15.1518 23.5654 15.0761 23.3827C15.0004 23.2 14.9806 22.9989 15.0192 22.8049C15.0578 22.6109 15.153 22.4327 15.2929 22.2929C15.4328 22.153 15.6109 22.0578 15.8049 22.0192C15.9989 21.9806 16.2 22.0004 16.3827 22.0761C16.5654 22.1518 16.7216 22.28 16.8315 22.4444C16.9414 22.6089 17 22.8022 17 23C17 23.2652 16.8946 23.5196 16.7071 23.7071C16.5196 23.8946 16.2652 24 16 24ZM17 19C17 19.2652 16.8946 19.5196 16.7071 19.7071C16.5196 19.8946 16.2652 20 16 20C15.7348 20 15.4804 19.8946 15.2929 19.7071C15.1054 19.5196 15 19.2652 15 19V9C15 8.73478 15.1054 8.48043 15.2929 8.29289C15.4804 8.10536 15.7348 8 16 8C16.2652 8 16.5196 8.10536 16.7071 8.29289C16.8946 8.48043 17 8.73478 17 9V19Z" fill="#E84A43"/>
</svg>
