<svg width="64" height="64" viewBox="0 0 64 64" fill="none" xmlns="http://www.w3.org/2000/svg">
<mask id="mask0_84_13" style="mask-type:alpha" maskUnits="userSpaceOnUse" x="0" y="0" width="64" height="64">
<rect width="64" height="64" fill="#D9D9D9"/>
</mask>
<g mask="url(#mask0_84_13)">
<path d="M43.1041 54.1454C45.2544 54.2289 47.3742 53.6199 49.1466 52.4095C50.7947 51.1824 52.1056 49.5643 52.9587 47.7039C53.9836 45.4665 54.6541 43.0856 54.9465 40.6454C55.3284 37.7451 55.5151 34.8229 55.5054 31.898C55.5054 24.7036 54.4509 19.2398 52.3418 15.5066C50.2714 11.7421 47.1922 9.85808 43.1041 9.85459V54.1454ZM35 3H44.3748C48.2414 3 51.4208 3.84005 53.913 5.52015C56.4716 7.1701 58.5538 9.45109 59.9555 12.1395C61.5048 15.0742 62.5508 18.2442 63.0506 21.5194C63.6945 25.1355 64.0121 28.8012 63.9996 32.4732C63.9872 35.7232 63.6943 38.9663 63.1244 42.1669C62.6459 45.3748 61.6544 48.4865 60.1875 51.3847C58.8001 54.1219 56.7847 56.4983 54.3032 58.323C51.8672 60.1042 48.7687 60.9965 45.0075 61H35V3Z" fill="#E84A43"/>
<path d="M19.7165 17.689C19.6226 16.696 19.4653 15.7096 19.2455 14.7351C19.0586 13.8438 18.704 12.9926 18.199 12.2233C17.7439 11.5341 17.1207 10.9616 16.3833 10.5555C15.6174 10.1332 14.7439 9.9244 13.8612 9.95269C13.1413 9.92506 12.4255 10.0694 11.778 10.3728C11.1305 10.6761 10.5715 11.129 10.1513 11.6908C9.24975 12.876 8.77908 14.3128 8.81172 15.78C8.85089 17.3441 9.2268 18.8834 9.9158 20.3012C10.7077 21.9188 12.1536 23.7122 14.2536 25.6815L20.7996 31.8102C22.0463 32.9979 23.1875 34.2833 24.2113 35.6533C25.1087 36.7248 25.8515 37.9076 26.4194 39.1698C26.9958 40.3732 27.3939 41.6482 27.602 42.9576C27.874 44.3048 28.0072 45.6744 27.9997 47.0467C28.0112 48.9088 27.6908 50.759 27.0526 52.5174C26.4982 54.1355 25.6082 55.6291 24.4363 56.908C23.2227 58.208 21.7107 59.2193 20.02 59.8619C18.1312 60.6499 16.0876 61.0372 14.0286 60.9972C10.0832 60.9972 6.87565 59.8619 4.40586 57.5912C1.93607 55.3206 0.467447 52.0134 0 47.6697L7.65008 45.3237C7.81838 47.6005 8.46259 49.8216 9.54428 51.8543C9.98302 52.6492 10.6451 53.3102 11.4553 53.7621C12.2655 54.2141 13.1914 54.439 14.128 54.4113C14.8791 54.3986 15.6201 54.2439 16.3088 53.956C16.9974 53.6681 17.6202 53.2526 18.1415 52.7334C19.3484 51.5713 19.9519 49.8549 19.9519 47.5843C19.9098 45.9003 19.4791 44.2464 18.6909 42.7415C17.899 40.9732 16.4269 39.0542 14.2746 36.9845L7.96403 31.0165C5.33726 28.5382 3.47096 26.1403 2.36514 23.8228C1.30145 21.4309 0.766894 18.8529 0.795357 16.2522C0.767552 14.3625 1.123 12.4857 1.84188 10.7263C2.49111 9.16306 3.46699 7.74404 4.70935 6.55675C5.8799 5.42124 7.27454 4.52122 8.81172 3.90933C10.3728 3.3037 12.0415 2.9949 13.7251 3.00006C17.7159 3.00006 20.8956 4.08516 23.2642 6.25534C25.6328 8.42552 26.8695 11.4045 26.9741 15.1923L19.7165 17.689Z" fill="black"/>
</g>
</svg>
