<svg width="300" height="29" viewBox="0 0 300 29" fill="none" xmlns="http://www.w3.org/2000/svg">
<g clip-path="url(#clip0_9_2378)">
<path d="M11.1988 7.4481C11.1406 6.92508 11.0531 6.43944 10.9365 5.99113C10.8199 5.51794 10.6304 5.107 10.368 4.75834C10.1056 4.40967 9.77036 4.1357 9.36223 3.93647C8.98326 3.73721 8.5168 3.6376 7.96291 3.6376C7.08832 3.6376 6.40323 3.924 5.90765 4.49681C5.41204 5.06965 5.16426 5.74208 5.16426 6.51415C5.16426 7.21149 5.36831 7.95865 5.77645 8.7556C6.21374 9.55258 7.01544 10.4367 8.18155 11.408L11.8111 14.434C12.569 15.0815 13.1958 15.7041 13.6914 16.3019C14.2161 16.8747 14.6243 17.46 14.9158 18.0577C15.2365 18.6554 15.4551 19.278 15.5717 19.9256C15.7175 20.5482 15.7904 21.2206 15.7904 21.9429C15.7904 22.8893 15.6155 23.7859 15.2656 24.6327C14.945 25.4545 14.4639 26.1768 13.8226 26.7994C13.1812 27.4221 12.365 27.9076 11.3738 28.2564C10.4117 28.6299 9.30391 28.8168 8.05035 28.8168C5.86392 28.8168 4.0856 28.2564 2.71543 27.1355C1.34525 26.0149 0.528977 24.3836 0.266602 22.2418L4.50832 21.0837C4.65409 22.3538 5.0039 23.4248 5.5578 24.2965C6.14086 25.1432 6.98628 25.5666 8.09408 25.5666C8.91037 25.5666 9.65376 25.2927 10.3243 24.7447C10.9948 24.1719 11.33 23.3252 11.33 22.2044C11.33 21.4573 11.0968 20.6603 10.6304 19.8135C10.1931 18.9418 9.37679 17.9954 8.18155 16.9743L4.68322 14.0231C3.22561 12.8027 2.19068 11.6197 1.57847 10.4741C0.995418 9.32844 0.70389 8.08317 0.70389 6.73829C0.70389 5.71717 0.893384 4.80813 1.27237 4.01118C1.68051 3.18931 2.21983 2.50442 2.89034 1.9565C3.56086 1.38368 4.31884 0.947839 5.16426 0.648978C6.03882 0.350114 6.94256 0.200684 7.87546 0.200684C10.0911 0.200684 11.8548 0.736144 13.1667 1.80707C14.4785 2.878 15.1636 4.3474 15.2219 6.21528L11.1988 7.4481ZM33.8603 19.5147L31.0617 6.96243H30.9743L28.1756 19.5147H33.8603ZM33.2043 0.761049L40.4635 28.2564H35.7845L34.5163 22.578H27.4759L26.2078 28.2564H21.9661L28.7441 0.761049H33.2043ZM52.3968 0.761049L58.9562 18.1698H59.0435V0.761049H63.2853V28.2564H58.8247L52.2656 10.8476H52.178V28.2564H47.9362V0.761049H52.3968ZM76.574 4.19797H70.8891V0.761049H86.7192V4.19797H81.0343V28.2564H76.574V4.19797ZM96.5623 15.1064C96.5623 16.5011 96.6061 17.8211 96.6935 19.0664C96.8101 20.3116 96.9996 21.4074 97.2619 22.3539C97.5534 23.2753 97.9472 24.01 98.4427 24.5579C98.9383 25.1058 99.5943 25.3799 100.41 25.3799C101.198 25.3799 101.839 25.1058 102.335 24.5579C102.83 23.9851 103.209 23.1882 103.471 22.1671C103.763 21.121 103.952 19.8882 104.04 18.4686C104.157 17.0241 104.215 15.4177 104.215 13.6495C104.215 11.5574 104.113 9.8639 103.909 8.56884C103.734 7.27375 103.471 6.2651 103.122 5.54285C102.772 4.79569 102.364 4.29758 101.897 4.04853C101.431 3.77457 100.935 3.6376 100.41 3.6376C99.8275 3.6376 99.3027 3.82439 98.8361 4.19797C98.3699 4.57155 97.9617 5.20662 97.6118 6.10322C97.2912 6.99979 97.0286 8.18279 96.8246 9.6522C96.6497 11.1216 96.5623 12.9397 96.5623 15.1064ZM91.8833 14.5087C91.8833 12.6159 92 10.8103 92.2332 9.09183C92.4662 7.34848 92.9037 5.82925 93.5449 4.53419C94.1864 3.21422 95.0464 2.16819 96.1251 1.39613C97.2328 0.599167 98.6612 0.200684 100.41 0.200684C102.335 0.200684 103.851 0.611618 104.958 1.43349C106.095 2.25536 106.955 3.33872 107.538 4.6836C108.121 6.02849 108.486 7.56016 108.631 9.27862C108.806 10.9971 108.894 12.7404 108.894 14.5087C108.894 16.4015 108.777 18.2196 108.544 19.9629C108.311 21.6814 107.874 23.2006 107.232 24.5206C106.62 25.8157 105.76 26.8616 104.652 27.6585C103.544 28.4306 102.13 28.8168 100.41 28.8168C98.4862 28.8168 96.9558 28.4058 95.819 27.5839C94.682 26.762 93.822 25.6786 93.2388 24.3338C92.656 22.9889 92.2767 21.4573 92.1018 19.7388C91.9562 18.0203 91.8833 16.277 91.8833 14.5087ZM121.833 12.4167C124.019 12.4167 125.623 12.0929 126.643 11.4454C127.692 10.7978 128.217 9.66464 128.217 8.04582C128.217 6.90017 127.795 5.94134 126.949 5.16927C126.133 4.3972 124.938 4.01118 123.363 4.01118H121.833V12.4167ZM117.373 0.761049H124.588C125.812 0.761049 126.92 0.947839 127.911 1.32142C128.932 1.67009 129.806 2.16819 130.535 2.81573C131.293 3.46325 131.876 4.26023 132.284 5.20662C132.692 6.12813 132.896 7.16169 132.896 8.30732C132.896 9.00465 132.78 9.71446 132.546 10.4367C132.313 11.159 131.964 11.8314 131.497 12.454C131.06 13.0518 130.491 13.5872 129.792 14.0604C129.092 14.5336 128.29 14.8823 127.386 15.1064L133.902 28.2564H128.786L122.882 15.6668H121.833V28.2564H117.373V0.761049ZM142.075 0.761049H146.535V28.2564H142.075V0.761049ZM160.626 0.761049L167.185 18.1698H167.273V0.761049H171.514V28.2564H167.054L160.495 10.8476H160.407V28.2564H156.166V0.761049H160.626ZM181.13 0.761049H185.59V28.2564H181.13V0.761049Z" fill="black"/>
<path d="M199.681 25.0061C201.022 25.0061 202.13 24.7323 203.005 24.1844C203.879 23.6365 204.579 22.8893 205.104 21.9429C205.629 20.9965 205.993 19.8882 206.197 18.6181C206.401 17.323 206.503 15.9408 206.503 14.4714C206.503 11.0593 205.92 8.4692 204.754 6.70094C203.617 4.90777 201.926 4.01118 199.681 4.01118V25.0061ZM195.221 0.761049H200.381C202.509 0.761049 204.258 1.15953 205.629 1.9565C207.028 2.72856 208.136 3.77457 208.952 5.09456C209.768 6.38962 210.337 7.87147 210.658 9.54011C211.007 11.2088 211.182 12.9397 211.182 14.7328C211.182 16.2023 211.022 17.7339 210.701 19.3279C210.409 20.9218 209.87 22.3787 209.083 23.6987C208.296 25.0188 207.217 26.1146 205.847 26.9863C204.506 27.833 202.801 28.2564 200.731 28.2564H195.221V0.761049ZM224.34 12.4167C226.526 12.4167 228.13 12.0929 229.15 11.4454C230.2 10.7978 230.724 9.66464 230.724 8.04582C230.724 6.90017 230.301 5.94134 229.456 5.16927C228.64 4.3972 227.444 4.01118 225.87 4.01118H224.34V12.4167ZM219.88 0.761049H227.095C228.319 0.761049 229.427 0.947839 230.418 1.32142C231.438 1.67009 232.313 2.16819 233.042 2.81573C233.8 3.46325 234.383 4.26023 234.791 5.20662C235.199 6.12813 235.403 7.16169 235.403 8.30732C235.403 9.00465 235.287 9.71446 235.053 10.4367C234.82 11.159 234.47 11.8314 234.004 12.454C233.567 13.0518 232.998 13.5872 232.298 14.0604C231.599 14.5336 230.797 14.8823 229.894 15.1064L236.409 28.2564H231.293L225.389 15.6668H224.34V28.2564H219.88V0.761049ZM255.732 0.761049V4.01118H248.474V12.0431H255.732V15.2932H248.474V25.0061H255.732V28.2564H244.013V0.761049H255.732ZM273.161 7.4481C273.103 6.92508 273.015 6.43944 272.899 5.99113C272.782 5.51794 272.593 5.107 272.33 4.75834C272.068 4.40967 271.733 4.1357 271.325 3.93647C270.946 3.73721 270.479 3.6376 269.925 3.6376C269.051 3.6376 268.365 3.924 267.87 4.49681C267.374 5.06965 267.127 5.74208 267.127 6.51415C267.127 7.21149 267.331 7.95865 267.739 8.7556C268.176 9.55258 268.978 10.4367 270.144 11.408L273.773 14.434C274.531 15.0815 275.158 15.7041 275.654 16.3019C276.179 16.8747 276.587 17.46 276.878 18.0577C277.199 18.6554 277.417 19.278 277.534 19.9256C277.68 20.5482 277.753 21.2206 277.753 21.9429C277.753 22.8893 277.578 23.7859 277.228 24.6327C276.907 25.4545 276.426 26.1768 275.785 26.7994C275.144 27.4221 274.327 27.9076 273.336 28.2564C272.374 28.6299 271.266 28.8168 270.013 28.8168C267.826 28.8168 266.048 28.2564 264.678 27.1355C263.308 26.0149 262.491 24.3836 262.229 22.2418L266.471 21.0837C266.617 22.3538 266.966 23.4248 267.52 24.2965C268.103 25.1432 268.949 25.5666 270.056 25.5666C270.873 25.5666 271.616 25.2927 272.287 24.7447C272.957 24.1719 273.292 23.3252 273.292 22.2044C273.292 21.4573 273.059 20.6603 272.593 19.8135C272.156 18.9418 271.339 17.9954 270.144 16.9743L266.646 14.0231C265.188 12.8027 264.153 11.6197 263.541 10.4741C262.958 9.32844 262.666 8.08317 262.666 6.73829C262.666 5.71717 262.856 4.80813 263.235 4.01118C263.643 3.18931 264.182 2.50442 264.853 1.9565C265.523 1.38368 266.281 0.947839 267.127 0.648978C268.001 0.350114 268.905 0.200684 269.838 0.200684C272.053 0.200684 273.817 0.736144 275.129 1.80707C276.441 2.878 277.126 4.3474 277.184 6.21528L273.161 7.4481ZM295.123 7.4481C295.065 6.92508 294.978 6.43944 294.862 5.99113C294.743 5.51794 294.554 5.107 294.293 4.75834C294.029 4.40967 293.695 4.1357 293.286 3.93647C292.906 3.73721 292.442 3.6376 291.888 3.6376C291.012 3.6376 290.327 3.924 289.832 4.49681C289.336 5.06965 289.088 5.74208 289.088 6.51415C289.088 7.21149 289.292 7.95865 289.701 8.7556C290.138 9.55258 290.939 10.4367 292.106 11.408L295.735 14.434C296.492 15.0815 297.119 15.7041 297.615 16.3019C298.14 16.8747 298.549 17.46 298.84 18.0577C299.162 18.6554 299.379 19.278 299.495 19.9256C299.64 20.5482 299.716 21.2206 299.716 21.9429C299.716 22.8893 299.539 23.7859 299.191 24.6327C298.869 25.4545 298.387 26.1768 297.746 26.7994C297.105 27.4221 296.289 27.9076 295.297 28.2564C294.337 28.6299 293.228 28.8168 291.975 28.8168C289.788 28.8168 288.01 28.2564 286.64 27.1355C285.269 26.0149 284.453 24.3836 284.191 22.2418L288.432 21.0837C288.578 22.3538 288.928 23.4248 289.482 24.2965C290.065 25.1432 290.91 25.5666 292.018 25.5666C292.834 25.5666 293.576 25.2927 294.25 24.7447C294.92 24.1719 295.253 23.3252 295.253 22.2044C295.253 21.4573 295.021 20.6603 294.554 19.8135C294.116 18.9418 293.301 17.9954 292.106 16.9743L288.607 14.0231C287.15 12.8027 286.115 11.6197 285.503 10.4741C284.92 9.32844 284.628 8.08317 284.628 6.73829C284.628 5.71717 284.818 4.80813 285.197 4.01118C285.605 3.18931 286.144 2.50442 286.815 1.9565C287.485 1.38368 288.243 0.947839 289.088 0.648978C289.963 0.350114 290.867 0.200684 291.801 0.200684C294.015 0.200684 295.779 0.736144 297.09 1.80707C298.401 2.878 299.089 4.3474 299.147 6.21528L295.123 7.4481Z" fill="#E84A43"/>
</g>
<defs>
<clipPath id="clip0_9_2378">
<rect width="300" height="29" fill="white"/>
</clipPath>
</defs>
</svg>
