<svg width="105" height="34" viewBox="0 0 105 34" fill="none" xmlns="http://www.w3.org/2000/svg">
<g clip-path="url(#clip0_162_12155)">
<path d="M45.5018 33.5095H36.9961L42.3162 0.596588H50.8215L45.5018 33.5095Z" fill="#00579F"/>
<path d="M76.3352 1.4012C74.6575 0.735257 71.9965 -3.05176e-05 68.7062 -3.05176e-05C60.3065 -3.05176e-05 54.3915 4.48149 54.3553 10.8887C54.2855 15.616 58.5902 18.2416 61.8098 19.8178C65.1006 21.4284 66.2192 22.4797 66.2192 23.9154C66.1857 26.1203 63.5601 27.1367 61.1112 27.1367C57.7153 27.1367 55.8958 26.6127 53.1306 25.386L52.0106 24.8601L50.8203 32.2483C52.8152 33.1577 56.4906 33.9646 60.3065 34C69.2313 34 75.0417 29.5878 75.1105 22.7599C75.1445 19.0132 72.8714 16.1423 67.9709 13.7964C64.9959 12.2904 63.174 11.275 63.174 9.73414C63.2089 8.33337 64.715 6.89863 68.0732 6.89863C70.8384 6.82836 72.87 7.49337 74.4091 8.15886L75.1784 8.50835L76.3352 1.4012Z" fill="#00579F"/>
<path d="M87.6402 21.8496C88.3407 19.9588 91.0361 12.6409 91.0361 12.6409C91.0008 12.7111 91.7352 10.7152 92.1552 9.48983L92.7496 12.3258C92.7496 12.3258 94.3604 20.2041 94.7101 21.8496C93.3808 21.8496 89.3203 21.8496 87.6402 21.8496ZM98.1395 0.596588H91.5603C89.5314 0.596588 87.99 1.19133 87.1147 3.32739L74.4805 33.509H83.4053C83.4053 33.509 84.8746 29.4468 85.1904 28.5719C86.1695 28.5719 94.8515 28.5719 96.1111 28.5719C96.3553 29.7274 97.126 33.509 97.126 33.509H105.001L98.1395 0.596588Z" fill="#00579F"/>
<path d="M29.8905 0.596588L21.5606 23.04L20.6504 18.4882C19.1103 13.2361 14.2805 7.52969 8.89062 4.69232L16.5205 33.4746H25.5151L38.8847 0.596588H29.8905Z" fill="#00579F"/>
<path d="M13.8249 0.596588H0.140002L0 1.2616C10.6751 3.99287 17.745 10.5765 20.6497 18.4896L17.6747 3.36322C17.185 1.26114 15.6798 0.665928 13.8249 0.596588Z" fill="#FAA61A"/>
</g>
<defs>
<clipPath id="clip0_162_12155">
<rect width="105" height="34" fill="white"/>
</clipPath>
</defs>
</svg>
