<svg width="80" height="63" viewBox="0 0 80 63" fill="none" xmlns="http://www.w3.org/2000/svg">
<g clip-path="url(#clip0_162_12162)">
<path d="M14.5007 62.862V58.6809C14.5007 57.0816 13.5399 56.0343 11.8906 56.0343C11.0659 56.0343 10.1692 56.3103 9.55273 57.2196C9.07235 56.4564 8.3838 56.0343 7.35097 56.0343C6.66242 56.0343 5.97387 56.2454 5.42943 57.0085V56.1723H3.98828V62.862H5.42943V59.168C5.42943 57.9827 6.04593 57.4225 7.0067 57.4225C7.96746 57.4225 8.44785 58.0477 8.44785 59.168V62.862H9.889V59.168C9.889 57.9827 10.5776 57.4225 11.4663 57.4225C12.427 57.4225 12.9074 58.0477 12.9074 59.168V62.862H14.5007ZM35.8778 56.1723H33.5399V54.1508H32.0988V56.1723H30.7937V57.4956H32.0988V60.5644C32.0988 62.0988 32.7153 63 34.3646 63C34.9811 63 35.6696 62.7889 36.15 62.5129L35.7337 61.2545C35.3173 61.5305 34.837 61.6036 34.4927 61.6036C33.8041 61.6036 33.5319 61.1814 33.5319 60.4914V57.4956H35.8698V56.1723H35.8778ZM48.1116 56.0261C47.2869 56.0261 46.7345 56.4483 46.3902 57.0004V56.1642H44.949V62.8539H46.3902V59.0868C46.3902 57.9746 46.8706 57.3414 47.7673 57.3414C48.0395 57.3414 48.3838 57.4144 48.664 57.4794L49.0804 56.083C48.7921 56.0262 48.3838 56.0261 48.1116 56.0261ZM29.6248 56.7243C28.9362 56.2372 27.9755 56.0261 26.9426 56.0261C25.2933 56.0261 24.1964 56.8624 24.1964 58.1857C24.1964 59.2979 25.0211 59.9312 26.4623 60.1341L27.1508 60.2072C27.9034 60.3452 28.3197 60.5563 28.3197 60.9054C28.3197 61.3925 27.7673 61.7416 26.8065 61.7416C25.8458 61.7416 25.0852 61.3925 24.6048 61.0434L23.9162 62.1557C24.6688 62.7158 25.7017 62.9919 26.7345 62.9919C28.656 62.9919 29.7609 62.0826 29.7609 60.8323C29.7609 59.647 28.8642 59.0219 27.4951 58.8108L26.8065 58.7377C26.19 58.6647 25.7097 58.5267 25.7097 58.1126C25.7097 57.6255 26.19 57.3495 26.9507 57.3495C27.7753 57.3495 28.6 57.6986 29.0163 57.9097L29.6248 56.7243ZM67.9675 56.0261C67.1428 56.0261 66.5904 56.4483 66.2461 57.0004V56.1642H64.8049V62.8539H66.2461V59.0868C66.2461 57.9746 66.7265 57.3414 67.6232 57.3414C67.8954 57.3414 68.2397 57.4144 68.5199 57.4794L68.9362 56.0992C68.656 56.0262 68.2477 56.0261 67.9675 56.0261ZM49.5527 59.5171C49.5527 61.5386 50.9298 63 53.0595 63C54.0203 63 54.7089 62.7889 55.3974 62.2368L54.7089 61.0515C54.1564 61.4737 53.612 61.6767 52.9875 61.6767C51.8185 61.6767 50.9939 60.8405 50.9939 59.5171C50.9939 58.2588 51.8185 57.4225 52.9875 57.3576C53.604 57.3576 54.1564 57.5687 54.7089 57.9827L55.3974 56.7974C54.7089 56.2372 54.0203 56.0343 53.0595 56.0343C50.9298 56.0262 49.5527 57.4956 49.5527 59.5171ZM62.8834 59.5171V56.1723H61.4422V57.0085C60.9619 56.3834 60.2733 56.0343 59.3766 56.0343C57.5191 56.0343 56.0779 57.4956 56.0779 59.5171C56.0779 61.5386 57.5191 63 59.3766 63C60.3374 63 61.0259 62.6509 61.4422 62.0258V62.862H62.8834V59.5171ZM57.5912 59.5171C57.5912 58.3318 58.3438 57.3576 59.5848 57.3576C60.7537 57.3576 61.5783 58.2669 61.5783 59.5171C61.5783 60.7024 60.7537 61.6767 59.5848 61.6767C58.3518 61.6036 57.5912 60.6943 57.5912 59.5171ZM40.3454 56.0261C38.4238 56.0261 37.0467 57.4225 37.0467 59.509C37.0467 61.6036 38.4238 62.9919 40.4174 62.9919C41.3782 62.9919 42.339 62.7158 43.0996 62.0826L42.411 61.0353C41.8586 61.4575 41.17 61.7335 40.4895 61.7335C39.5928 61.7335 38.7041 61.3113 38.4959 60.1341H43.3718C43.3718 59.9231 43.3718 59.785 43.3718 59.574C43.4358 57.4225 42.1948 56.0261 40.3454 56.0261ZM40.3454 57.2845C41.2421 57.2845 41.8586 57.8447 41.9947 58.8839H38.5599C38.696 57.9827 39.3125 57.2845 40.3454 57.2845ZM76.15 59.5171V53.5256H74.7088V57.0085C74.2285 56.3834 73.5399 56.0343 72.6432 56.0343C70.7857 56.0343 69.3446 57.4956 69.3446 59.5171C69.3446 61.5386 70.7857 63 72.6432 63C73.604 63 74.2925 62.6509 74.7088 62.0258V62.862H76.15V59.5171ZM70.8578 59.5171C70.8578 58.3318 71.6104 57.3576 72.8514 57.3576C74.0203 57.3576 74.845 58.2669 74.845 59.5171C74.845 60.7024 74.0203 61.6767 72.8514 61.6767C71.6104 61.6036 70.8578 60.6943 70.8578 59.5171ZM22.6112 59.5171V56.1723H21.17V57.0085C20.6896 56.3834 20.0011 56.0343 19.1044 56.0343C17.2469 56.0343 15.8057 57.4956 15.8057 59.5171C15.8057 61.5386 17.2469 63 19.1044 63C20.0651 63 20.7537 62.6509 21.17 62.0258V62.862H22.6112V59.5171ZM17.2549 59.5171C17.2549 58.3318 18.0075 57.3576 19.2485 57.3576C20.4174 57.3576 21.2421 58.2669 21.2421 59.5171C21.2421 60.7024 20.4174 61.6767 19.2485 61.6767C18.0075 61.6036 17.2549 60.6943 17.2549 59.5171Z" fill="black"/>
<path d="M50.7939 5.36636H29.1445V44.8063H50.7939V5.36636Z" fill="#FF5A00"/>
<path d="M30.5845 25.0863C30.5845 17.0733 34.2994 9.96147 40 5.36637C35.8046 2.02152 30.5124 0 24.7398 0C11.0649 0 0 11.2198 0 25.0863C0 38.9528 11.0649 50.1727 24.7398 50.1727C30.5124 50.1727 35.8046 48.1512 40 44.8063C34.2914 40.2762 30.5845 33.0994 30.5845 25.0863Z" fill="#EB001B"/>
<path d="M80 25.0863C80 38.9528 68.9351 50.1727 55.2602 50.1727C49.4876 50.1727 44.1954 48.1512 40 44.8063C45.7726 40.2031 49.4155 33.0994 49.4155 25.0863C49.4155 17.0733 45.7006 9.96147 40 5.36637C44.1873 2.02152 49.4796 0 55.2522 0C68.9351 0 80 11.2929 80 25.0863Z" fill="#F79E1B"/>
</g>
<defs>
<clipPath id="clip0_162_12162">
<rect width="80" height="63" fill="white"/>
</clipPath>
</defs>
</svg>
