<svg width="148" height="39" viewBox="0 0 148 39" fill="none" xmlns="http://www.w3.org/2000/svg">
<g clip-path="url(#clip0_162_12144)">
<path d="M47.3272 7.79916C47.0226 7.79916 46.7639 8.01896 46.7163 8.31824L43.1905 30.5428C43.1777 30.624 43.1827 30.707 43.2053 30.786C43.2278 30.8651 43.2673 30.9384 43.321 31.0008C43.3748 31.0633 43.4414 31.1134 43.5165 31.1478C43.5916 31.1822 43.6733 31.2 43.756 31.2H47.9373C48.2414 31.2 48.5006 30.9798 48.5482 30.6809L49.5839 24.1545C49.6311 23.8557 49.8903 23.6354 50.1949 23.6354H53.9964C58.4381 23.6354 62.2086 20.4141 62.8974 16.0492C63.5918 11.6473 60.132 7.80872 55.2283 7.79916H47.3272ZM51.3918 12.7605H54.4334C56.9374 12.7605 57.7529 14.2291 57.4951 15.8533C57.2373 17.4808 55.9708 18.6797 53.5485 18.6797H50.4527L51.3918 12.7605ZM71.4015 14.2713C70.3457 14.2752 69.1308 14.4902 67.7669 15.0549C64.6384 16.351 63.136 19.0298 62.4979 20.9827C62.4979 20.9827 60.4672 26.941 65.0553 30.2144C65.0553 30.2144 69.3104 33.3658 74.1005 30.0202L74.0179 30.5428C74.0051 30.6239 74.0101 30.7068 74.0326 30.7858C74.0551 30.8648 74.0945 30.9381 74.1481 31.0005C74.2017 31.0629 74.2683 31.1131 74.3433 31.1475C74.4183 31.182 74.4999 31.1999 74.5825 31.2H78.5518C78.8564 31.2 79.1151 30.9798 79.1628 30.6809L81.5773 15.4615C81.5902 15.3803 81.5853 15.2973 81.5629 15.2182C81.5405 15.1391 81.5011 15.0657 81.4474 15.0032C81.3938 14.9406 81.3271 14.8904 81.2521 14.8559C81.177 14.8214 81.0953 14.8035 81.0126 14.8034H77.0433C76.7387 14.8034 76.4796 15.0236 76.4324 15.3225L76.3026 16.1417C76.3026 16.1417 74.5694 14.2596 71.4015 14.2713ZM71.5313 19.0785C71.9871 19.0785 72.404 19.141 72.7781 19.2605C74.4907 19.8069 75.4618 21.4423 75.1808 23.215C74.8342 25.3977 73.0333 27.0048 70.7237 27.0048C70.2684 27.0048 69.8515 26.9427 69.4769 26.8233C67.7647 26.2768 66.7876 24.6414 67.0686 22.8688C67.4151 20.6861 69.2217 19.0785 71.5313 19.0785Z" fill="#003087"/>
<path d="M104.487 7.79916C104.183 7.79916 103.924 8.01896 103.876 8.31824L100.351 30.5428C100.338 30.624 100.343 30.707 100.365 30.786C100.388 30.8651 100.427 30.9384 100.481 31.0008C100.535 31.0633 100.602 31.1134 100.677 31.1478C100.752 31.1822 100.833 31.2 100.916 31.2H105.097C105.402 31.2 105.661 30.9798 105.708 30.6809L106.744 24.1545C106.791 23.8557 107.05 23.6354 107.355 23.6354H111.157C115.598 23.6354 119.368 20.4141 120.057 16.0492C120.751 11.6473 117.292 7.80872 112.388 7.79916H104.487ZM108.552 12.7605H111.594C114.098 12.7605 114.913 14.2291 114.655 15.8533C114.397 17.4808 113.131 18.6797 110.709 18.6797H107.613L108.552 12.7605ZM128.561 14.2713C127.505 14.2752 126.291 14.4902 124.927 15.0549C121.798 16.351 120.296 19.0298 119.658 20.9827C119.658 20.9827 117.628 26.941 122.216 30.2144C122.216 30.2144 126.47 33.3658 131.261 30.0202L131.178 30.5428C131.165 30.624 131.17 30.707 131.193 30.786C131.215 30.8651 131.255 30.9384 131.309 31.0008C131.362 31.0633 131.429 31.1134 131.504 31.1478C131.579 31.1822 131.661 31.2 131.744 31.2H135.712C136.017 31.2 136.276 30.9798 136.323 30.6809L138.739 15.4615C138.752 15.3802 138.747 15.2971 138.724 15.218C138.702 15.1388 138.662 15.0654 138.609 15.0028C138.555 14.9403 138.488 14.8901 138.413 14.8556C138.338 14.8212 138.256 14.8034 138.173 14.8034H134.204C133.899 14.8034 133.64 15.0236 133.593 15.3225L133.463 16.1417C133.463 16.1417 131.729 14.2596 128.561 14.2713ZM128.691 19.0785C129.147 19.0785 129.564 19.141 129.938 19.2605C131.65 19.8069 132.621 21.4423 132.34 23.215C131.994 25.3977 130.193 27.0048 127.883 27.0048C127.428 27.0048 127.011 26.9427 126.637 26.8233C124.924 26.2768 123.947 24.6414 124.228 22.8688C124.575 20.6861 126.381 19.0785 128.691 19.0785Z" fill="#0070E0"/>
<path d="M83.4609 14.8034C83.1462 14.8034 82.9225 15.1087 83.0186 15.4063L87.3703 28.8288L83.4355 35.1541C83.2445 35.4612 83.4666 35.8578 83.8297 35.8578H88.4803C88.6133 35.8576 88.7441 35.8234 88.8599 35.7585C88.9757 35.6935 89.0727 35.5999 89.1415 35.4868L101.295 15.5027C101.482 15.1956 101.259 14.8029 100.898 14.8029H96.2477C96.1134 14.8031 95.9814 14.8379 95.8648 14.9041C95.7482 14.9703 95.6509 15.0655 95.5826 15.1804L90.7986 23.2084L88.3702 15.2399C88.2911 14.9806 88.0503 14.8029 87.7781 14.8029L83.4609 14.8034Z" fill="#003087"/>
<path d="M143.246 7.79916C142.942 7.79916 142.683 8.01939 142.635 8.31824L139.109 30.5419C139.096 30.6232 139.101 30.7062 139.123 30.7854C139.146 30.8646 139.185 30.938 139.239 31.0005C139.292 31.0631 139.359 31.1133 139.434 31.1477C139.51 31.1822 139.591 31.2 139.674 31.2H143.855C144.16 31.2 144.419 30.9798 144.466 30.6809L147.992 8.45637C148.005 8.37526 148 8.29235 147.977 8.21335C147.955 8.13434 147.916 8.06111 147.862 7.99867C147.808 7.93624 147.742 7.88608 147.667 7.85164C147.592 7.8172 147.51 7.7993 147.427 7.79916H143.246Z" fill="#0070E0"/>
<path d="M12.469 7.79916C12.1997 7.79938 11.9393 7.89507 11.7345 8.06904C11.5298 8.243 11.3942 8.48383 11.352 8.74826L9.49609 20.4485C9.58262 19.902 10.0563 19.4994 10.6131 19.4994H16.0516C21.5251 19.4994 26.1697 15.5305 27.0183 10.1521C27.0815 9.75061 27.1173 9.34529 27.1254 8.93895C25.7344 8.21399 24.1004 7.79916 22.31 7.79916H12.469Z" fill="#001C64"/>
<path d="M27.1232 8.93939C27.1151 9.34573 27.0793 9.75105 27.0161 10.1526C26.1674 15.531 21.5225 19.4998 16.0494 19.4998H10.6109C10.0545 19.4998 9.5804 19.902 9.49388 20.4489L7.78735 31.2004L6.71844 37.9453C6.69758 38.0757 6.70539 38.2089 6.74138 38.3359C6.77736 38.4629 6.84065 38.5807 6.92686 38.681C7.01306 38.7814 7.12015 38.8619 7.24072 38.9172C7.36129 38.9724 7.49248 39.0009 7.62523 39.0009H13.5283C13.7977 39.0006 14.0581 38.905 14.2628 38.731C14.4676 38.557 14.6032 38.3162 14.6453 38.0518L16.2002 28.2493C16.2423 27.9848 16.3781 27.7438 16.583 27.5698C16.7879 27.3958 17.0486 27.3002 17.3181 27.3002H20.7936C26.2671 27.3002 30.9116 23.3314 31.7603 17.953C32.3629 14.1358 30.4287 10.6621 27.1232 8.93939Z" fill="#0070E0"/>
<path d="M5.76067 0.000244141C5.20436 0.000244141 4.73022 0.402471 4.6437 0.948475L0.0114007 30.1451C-0.0764377 30.6994 0.354463 31.2006 0.919077 31.2006H7.78839L9.49404 20.4491L11.35 8.7489C11.3921 8.48447 11.5277 8.24364 11.7325 8.06967C11.9372 7.89571 12.1976 7.80002 12.467 7.7998H22.308C24.0988 7.7998 25.7324 8.21506 27.1234 8.93959C27.2186 4.04293 23.1536 0.000244141 17.5647 0.000244141H5.76067Z" fill="#003087"/>
</g>
<defs>
<clipPath id="clip0_162_12144">
<rect width="148" height="39" fill="white"/>
</clipPath>
</defs>
</svg>
