<svg width="107" height="44" viewBox="0 0 107 44" fill="none" xmlns="http://www.w3.org/2000/svg">
<g clip-path="url(#clip0_162_12153)">
<path d="M19.5604 5.67269C18.3065 7.1589 16.3002 8.33111 14.294 8.16365C14.0432 6.15414 15.0254 4.01903 16.1749 2.70029C17.4288 1.17222 19.6231 0.0837298 21.3995 0C21.6084 2.09324 20.7934 4.14462 19.5604 5.67269ZM21.3786 8.56137C18.4737 8.39391 15.9868 10.215 14.6075 10.215C13.2073 10.215 11.0965 8.6451 8.7977 8.68696C5.80923 8.72883 3.02973 10.4244 1.50415 13.1246C-1.63062 18.5252 0.68911 26.5214 3.71938 30.9172C5.20317 33.0942 6.97954 35.4805 9.32016 35.3968C11.5354 35.313 12.4131 33.9524 15.0881 33.9524C17.784 33.9524 18.5573 35.3968 20.8979 35.3549C23.3221 35.313 24.8477 33.1779 26.3315 31.001C28.0243 28.5309 28.7139 26.1237 28.7557 25.9981C28.7139 25.9562 24.0745 24.177 24.0327 18.8183C23.9909 14.3387 27.6899 12.2036 27.8571 12.078C25.7672 8.98002 22.5071 8.6451 21.3786 8.56137ZM38.16 2.49096V35.1246H43.2174V23.9676H50.2184C56.6133 23.9676 61.1065 19.5718 61.1065 13.2084C61.1065 6.84491 56.6969 2.49096 50.3856 2.49096H38.16ZM43.2174 6.76118H49.0481C53.4368 6.76118 55.9446 9.10561 55.9446 13.2293C55.9446 17.353 53.4368 19.7184 49.0272 19.7184H43.2174V6.76118ZM70.3436 35.3758C73.5202 35.3758 76.4668 33.764 77.8043 31.2103H77.9088V35.1246H82.5901V18.8811C82.5901 14.1713 78.8284 11.1361 73.0395 11.1361C67.6686 11.1361 63.6979 14.2131 63.5516 18.4415H68.1075C68.4836 16.432 70.3436 15.1132 72.8932 15.1132C75.9862 15.1132 77.7207 16.5576 77.7207 19.216V21.0162L71.4094 21.393C65.537 21.7488 62.3604 24.156 62.3604 28.3425C62.3604 32.5709 65.6415 35.3758 70.3436 35.3758ZM71.702 31.5033C69.0061 31.5033 67.2924 30.2055 67.2924 28.2169C67.2924 26.1656 68.9434 24.9724 72.0991 24.784L77.7207 24.4282V26.2702C77.7207 29.3264 75.1293 31.5033 71.702 31.5033ZM88.8387 44C93.7708 44 96.0905 42.1161 98.1176 36.4015L106.999 11.45H101.858L95.9024 30.7288H95.7979L89.8418 11.45H84.5545L93.1229 35.2084L92.6631 36.6527C91.8899 39.1018 90.636 40.0438 88.3998 40.0438C88.0028 40.0438 87.2295 40.0019 86.9161 39.96V43.8744C87.2086 43.9581 88.4625 44 88.8387 44Z" fill="black"/>
</g>
<defs>
<clipPath id="clip0_162_12153">
<rect width="107" height="44" fill="white"/>
</clipPath>
</defs>
</svg>
