<svg width="181" height="35" viewBox="0 0 181 35" fill="none" xmlns="http://www.w3.org/2000/svg">
<g clip-path="url(#clip0_162_12168)">
<path d="M177.742 14.7219L174.396 23.0781H174.296L170.805 14.7219H167.648L172.879 26.4031L169.89 32.9H172.957L181.021 14.7219H177.742ZM154.097 7.78751H151.174V27.0594H154.097V7.78751ZM143.099 7.78751H136.072V27.0594H139.017V19.7641H143.11C143.936 19.7918 144.758 19.6584 145.531 19.3718C146.303 19.0852 147.009 18.6509 147.609 18.0943C148.209 17.5377 148.69 16.8698 149.024 16.1294C149.359 15.389 149.54 14.5909 149.557 13.7813C149.54 12.9702 149.359 12.1706 149.024 11.4289C148.689 10.6872 148.207 10.0181 147.606 9.46046C147.005 8.90284 146.297 8.46781 145.524 8.18062C144.75 7.89343 143.926 7.75981 143.099 7.78751ZM143.177 17.0734H139.017V10.5109H143.188C144.076 10.5109 144.927 10.8566 145.554 11.472C146.182 12.0874 146.535 12.922 146.535 13.7922C146.535 14.6624 146.182 15.497 145.554 16.1124C144.927 16.7277 144.076 17.0734 143.188 17.0734H143.177ZM161.302 14.3063C160.231 14.246 159.166 14.4934 158.237 15.0179C157.308 15.5425 156.555 16.3214 156.071 17.2594L158.681 18.3531C158.939 17.8894 159.33 17.5099 159.806 17.2612C160.282 17.0124 160.821 16.9054 161.358 16.9531C161.726 16.9169 162.098 16.9525 162.453 17.0578C162.807 17.1632 163.137 17.3362 163.423 17.5669C163.709 17.7976 163.946 18.0815 164.12 18.4023C164.294 18.7231 164.401 19.0743 164.436 19.4359V19.6328C163.501 19.1368 162.454 18.8774 161.391 18.8781C158.592 18.8781 155.736 20.3875 155.736 23.2531C155.736 25.8344 158.023 27.4969 160.61 27.4969C161.347 27.5427 162.082 27.392 162.738 27.0607C163.394 26.7295 163.946 26.2301 164.336 25.6156H164.447V27.1031H167.302V19.6875C167.302 16.2641 164.693 14.3609 161.324 14.3609L161.302 14.3063ZM160.956 24.8719C159.997 24.8719 158.658 24.3906 158.658 23.2313C158.658 21.7438 160.32 21.175 161.77 21.175C162.705 21.1505 163.63 21.3734 164.447 21.8203C164.339 22.6567 163.926 23.4266 163.285 23.9876C162.643 24.5485 161.816 24.8627 160.956 24.8719ZM55.198 27.475C52.4226 27.484 49.7553 26.4202 47.7741 24.5142C45.7929 22.6083 44.6573 20.0135 44.6133 17.2922C44.6573 14.5709 45.7929 11.9761 47.7741 10.0701C49.7553 8.16415 52.4226 7.10041 55.198 7.10938C56.5205 7.08779 57.8341 7.32529 59.0617 7.80797C60.2894 8.29065 61.4065 9.0088 62.3474 9.92032L60.3287 11.8781C58.9594 10.5624 57.115 9.83111 55.198 9.84376C53.1954 9.84376 51.2748 10.6239 49.8587 12.0125C48.4426 13.4012 47.6471 15.2846 47.6471 17.2484C47.6471 19.2123 48.4426 21.0957 49.8587 22.4844C51.2748 23.873 53.1954 24.6531 55.198 24.6531C56.1726 24.6924 57.1447 24.5306 58.0516 24.1783C58.9584 23.826 59.7797 23.2909 60.4625 22.6078C61.3703 21.6481 61.9172 20.4135 62.0128 19.1078H55.198V16.4063H64.7901C64.8947 16.9801 64.9432 17.5624 64.9351 18.1453C65.0314 20.5665 64.145 22.9264 62.4701 24.7078C61.5245 25.6445 60.3881 26.3751 59.135 26.852C57.882 27.3288 56.5404 27.5411 55.198 27.475ZM79.7693 20.9125C79.8059 21.7874 79.6618 22.6605 79.3457 23.4794C79.0295 24.2983 78.5478 25.0461 77.9295 25.6778C77.3112 26.3095 76.5691 26.8122 75.7477 27.1555C74.9263 27.4989 74.0426 27.6759 73.1497 27.6759C72.2568 27.6759 71.3731 27.4989 70.5517 27.1555C69.7303 26.8122 68.9881 26.3095 68.3698 25.6778C67.7515 25.0461 67.2698 24.2983 66.9537 23.4794C66.6375 22.6605 66.4934 21.7874 66.53 20.9125C66.4934 20.0376 66.6375 19.1645 66.9537 18.3456C67.2698 17.5267 67.7515 16.779 68.3698 16.1472C68.9881 15.5155 69.7303 15.0129 70.5517 14.6695C71.3731 14.3261 72.2568 14.1491 73.1497 14.1491C74.0426 14.1491 74.9263 14.3261 75.7477 14.6695C76.5691 15.0129 77.3112 15.5155 77.9295 16.1472C78.5478 16.779 79.0295 17.5267 79.3457 18.3456C79.6618 19.1645 79.8059 20.0376 79.7693 20.9125ZM76.8694 20.9125C76.9186 20.4044 76.859 19.8919 76.6944 19.4077C76.5299 18.9235 76.264 18.4783 75.9138 18.1008C75.5636 17.7232 75.1368 17.4216 74.6608 17.2151C74.1848 17.0087 73.6701 16.9021 73.1497 16.9021C72.6292 16.9021 72.1145 17.0087 71.6385 17.2151C71.1625 17.4216 70.7357 17.7232 70.3856 18.1008C70.0354 18.4783 69.7695 18.9235 69.6049 19.4077C69.4403 19.8919 69.3808 20.4044 69.43 20.9125C69.3808 21.4206 69.4403 21.9332 69.6049 22.4174C69.7695 22.9015 70.0354 23.3467 70.3856 23.7242C70.7357 24.1018 71.1625 24.4035 71.6385 24.6099C72.1145 24.8163 72.6292 24.9229 73.1497 24.9229C73.6701 24.9229 74.1848 24.8163 74.6608 24.6099C75.1368 24.4035 75.5636 24.1018 75.9138 23.7242C76.264 23.3467 76.5299 22.9015 76.6944 22.4174C76.859 21.9332 76.9186 21.4206 76.8694 20.9125ZM94.6035 20.9125C94.6035 22.6327 93.9067 24.2824 92.6663 25.4988C91.426 26.7151 89.7436 27.3984 87.9895 27.3984C86.2353 27.3984 84.553 26.7151 83.3126 25.4988C82.0723 24.2824 81.3754 22.6327 81.3754 20.9125C81.3754 19.1923 82.0723 17.5426 83.3126 16.3263C84.553 15.1099 86.2353 14.4266 87.9895 14.4266C89.7436 14.4266 91.426 15.1099 92.6663 16.3263C93.9067 17.5426 94.6035 19.1923 94.6035 20.9125ZM91.7148 20.9125C91.764 20.4044 91.7044 19.8919 91.5398 19.4077C91.3753 18.9235 91.1094 18.4783 90.7592 18.1008C90.409 17.7232 89.9822 17.4216 89.5062 17.2151C89.0302 17.0087 88.5155 16.9021 87.9951 16.9021C87.4746 16.9021 86.9599 17.0087 86.4839 17.2151C86.0079 17.4216 85.5811 17.7232 85.2309 18.1008C84.8808 18.4783 84.6149 18.9235 84.4503 19.4077C84.2857 19.8919 84.2261 20.4044 84.2753 20.9125C84.2261 21.4206 84.2857 21.9332 84.4503 22.4174C84.6149 22.9015 84.8808 23.3467 85.2309 23.7242C85.5811 24.1018 86.0079 24.4035 86.4839 24.6099C86.9599 24.8163 87.4746 24.9229 87.9951 24.9229C88.5155 24.9229 89.0302 24.8163 89.5062 24.6099C89.9822 24.4035 90.409 24.1018 90.7592 23.7242C91.1094 23.3467 91.3753 22.9015 91.5398 22.4174C91.7044 21.9332 91.764 21.4206 91.7148 20.9125ZM109.081 14.7547V26.5344C109.081 31.3688 106.147 33.3594 102.69 33.3594C101.422 33.3698 100.18 33.0118 99.1203 32.3305C98.0602 31.6491 97.2298 30.6751 96.7339 29.5313L99.2657 28.4375C99.5284 29.1053 99.9858 29.6823 100.581 30.0967C101.176 30.511 101.882 30.7442 102.612 30.7672C104.843 30.7672 106.203 29.4219 106.203 26.9172V25.9766H106.092C105.654 26.4553 105.117 26.8367 104.517 27.0951C103.917 27.3536 103.267 27.4831 102.612 27.475C100.837 27.475 99.1348 26.7836 97.8798 25.5529C96.6247 24.3222 95.9197 22.653 95.9197 20.9125C95.9197 19.172 96.6247 17.5028 97.8798 16.2721C99.1348 15.0414 100.837 14.35 102.612 14.35C103.272 14.3358 103.927 14.459 104.535 14.7117C105.142 14.9644 105.688 15.3406 106.136 15.8156H106.248V14.7219H109.081V14.7547ZM106.482 20.9453C106.523 20.4503 106.462 19.9523 106.303 19.4808C106.144 19.0093 105.89 18.5739 105.556 18.2006C105.222 17.8272 104.815 17.5234 104.359 17.3072C103.903 17.0911 103.408 16.9669 102.902 16.9422C102.386 16.959 101.879 17.0764 101.41 17.2876C100.941 17.4988 100.52 17.7996 100.171 18.1723C99.8221 18.545 99.5525 18.9823 99.3779 19.4584C99.2033 19.9345 99.1272 20.44 99.1542 20.9453C99.1303 21.4472 99.2088 21.9487 99.3852 22.4204C99.5615 22.8922 99.8322 23.3246 100.181 23.6924C100.53 24.0601 100.951 24.3559 101.418 24.5622C101.885 24.7685 102.39 24.8812 102.902 24.8938C103.405 24.8747 103.898 24.7562 104.353 24.5454C104.808 24.3346 105.215 24.0359 105.549 23.6672C105.884 23.2985 106.139 22.8673 106.299 22.3996C106.459 21.9319 106.522 21.4372 106.482 20.9453ZM114.245 7.80938V27.0703H111.3V7.80938H114.245ZM125.845 23.0781L128.142 24.5656C127.529 25.4634 126.699 26.1986 125.726 26.7062C124.753 27.2137 123.668 27.4778 122.566 27.475C121.689 27.4873 120.819 27.3251 120.008 26.9981C119.197 26.6711 118.463 26.1862 117.848 25.5727C117.234 24.9591 116.753 24.2298 116.435 23.4288C116.117 22.6278 115.967 21.7718 115.996 20.9125C115.866 19.4353 116.294 17.9627 117.199 16.7753C118.105 15.5879 119.424 14.7688 120.906 14.4741C122.388 14.1794 123.929 14.4298 125.234 15.1774C126.54 15.9251 127.52 17.1178 127.986 18.5281L128.287 19.2828L119.364 22.9031C119.642 23.516 120.101 24.0331 120.682 24.3879C121.262 24.7427 121.938 24.9189 122.621 24.8938C123.271 24.8838 123.908 24.7119 124.472 24.3943C125.036 24.0767 125.508 23.6238 125.845 23.0781ZM118.807 20.7156L124.807 18.2875C124.575 17.8417 124.215 17.4726 123.771 17.2257C123.326 16.9788 122.818 16.865 122.309 16.8984C121.822 16.9193 121.344 17.0352 120.903 17.2392C120.462 17.4432 120.067 17.7313 119.741 18.0866C119.415 18.442 119.165 18.8575 119.004 19.3089C118.844 19.7603 118.777 20.2385 118.807 20.7156Z" fill="#5F6368"/>
<path d="M15.1009 16.7125L0.132812 32.0906C0.300884 32.6748 0.602933 33.2135 1.01587 33.6656C1.42881 34.1178 1.9417 34.4714 2.51533 34.6993C3.08897 34.9273 3.70816 35.0236 4.32558 34.9809C4.943 34.9383 5.5423 34.7577 6.07766 34.4531L22.9195 25.0469L15.1009 16.7125Z" fill="#EA4335"/>
<path d="M30.239 14.0984L22.9557 10.0078L14.7578 17.0625L22.9891 25.025L30.2167 20.9781C30.857 20.6494 31.3933 20.155 31.7675 19.5487C32.1417 18.9423 32.3396 18.247 32.3396 17.5383C32.3396 16.8295 32.1417 16.1343 31.7675 15.5279C31.3933 14.9215 30.857 14.4272 30.2167 14.0984H30.239Z" fill="#FBBC04"/>
<path d="M0.133887 2.90936C0.0434078 3.23737 -0.00161107 3.57582 4.40251e-05 3.91561V31.0844C0.000949003 31.424 0.0459245 31.7621 0.133887 32.0906L15.615 17.1062L0.133887 2.90936Z" fill="#4285F4"/>
<path d="M15.2124 17.5L22.953 10.0078L6.13343 0.55782C5.50067 0.194411 4.781 0.00194014 4.04771 7.82265e-06C3.1621 -0.0017132 2.3002 0.280585 1.5934 0.80387C0.886605 1.32716 0.373679 2.06272 0.132812 2.89845L15.2124 17.5Z" fill="#34A853"/>
</g>
<defs>
<clipPath id="clip0_162_12168">
<rect width="181" height="35" fill="white"/>
</clipPath>
</defs>
</svg>
