<svg width="153" height="24" viewBox="0 0 153 24" fill="none" xmlns="http://www.w3.org/2000/svg">
<path d="M24.2011 9.69819L18.841 14.9232L20.1068 22.303C20.1618 22.6257 20.0293 22.9518 19.7643 23.1446C19.6146 23.2538 19.4364 23.3089 19.2583 23.3089C19.1215 23.3089 18.9838 23.2762 18.8582 23.21L12.2305 19.7257L5.6037 23.2091C5.31456 23.3623 4.96261 23.3373 4.69758 23.1437C4.43254 22.9509 4.30002 22.6248 4.35509 22.3021L5.62091 14.9224L0.259916 9.69819C0.0258562 9.46929 -0.0593345 9.12681 0.042206 8.81616C0.143746 8.50552 0.413087 8.27748 0.7375 8.23015L8.14565 7.15451L11.4586 0.440797C11.7486 -0.146932 12.7124 -0.146932 13.0024 0.440797L16.3154 7.15451L23.7235 8.23015C24.0479 8.27748 24.3173 8.50466 24.4188 8.81616C24.5203 9.12767 24.4351 9.46843 24.2011 9.69819Z" fill="#E84A43"/>
<path d="M55.9511 9.69819L50.591 14.9232L51.8568 22.303C51.9118 22.6257 51.7793 22.9518 51.5143 23.1446C51.3646 23.2538 51.1864 23.3089 51.0083 23.3089C50.8715 23.3089 50.7338 23.2762 50.6082 23.21L43.9805 19.7257L37.3537 23.2091C37.0646 23.3623 36.7126 23.3373 36.4476 23.1437C36.1825 22.9509 36.05 22.6248 36.1051 22.3021L37.3709 14.9224L32.0099 9.69819C31.7759 9.46929 31.6907 9.12681 31.7922 8.81616C31.8937 8.50552 32.1631 8.27748 32.4875 8.23015L39.8956 7.15451L43.2086 0.440797C43.4986 -0.146932 44.4624 -0.146932 44.7524 0.440797L48.0654 7.15451L55.4735 8.23015C55.7979 8.27748 56.0673 8.50466 56.1688 8.81616C56.2703 9.12767 56.1851 9.46843 55.9511 9.69819Z" fill="#E84A43"/>
<path d="M152.74 9.69819L147.38 14.9232L148.646 22.303C148.701 22.6257 148.568 22.9518 148.303 23.1446C148.154 23.2538 147.975 23.3089 147.797 23.3089C147.661 23.3089 147.523 23.2762 147.397 23.21L140.77 19.7257L134.143 23.2091C133.854 23.3623 133.502 23.3373 133.237 23.1437C132.972 22.9509 132.839 22.6248 132.894 22.3021L134.16 14.9224L128.799 9.69819C128.565 9.46929 128.48 9.12681 128.581 8.81616C128.683 8.50552 128.952 8.27748 129.277 8.23015L136.685 7.15451L139.998 0.440797C140.288 -0.146932 141.251 -0.146932 141.541 0.440797L144.854 7.15451L152.263 8.23015C152.587 8.27748 152.856 8.50466 152.958 8.81616C153.059 9.12767 152.974 9.46843 152.74 9.69819Z" fill="#E84A43"/>
<path d="M87.7011 9.69819L82.341 14.9232L83.6068 22.303C83.6618 22.6257 83.5293 22.9518 83.2643 23.1446C83.1146 23.2538 82.9364 23.3089 82.7583 23.3089C82.6215 23.3089 82.4838 23.2762 82.3582 23.21L75.7305 19.7257L69.1037 23.2091C68.8146 23.3623 68.4626 23.3373 68.1976 23.1437C67.9325 22.9509 67.8 22.6248 67.8551 22.3021L69.1209 14.9224L63.7599 9.69819C63.5259 9.46929 63.4407 9.12681 63.5422 8.81616C63.6437 8.50552 63.9131 8.27748 64.2375 8.23015L71.6456 7.15451L74.9586 0.440797C75.2486 -0.146932 76.2124 -0.146932 76.5024 0.440797L79.8154 7.15451L87.2235 8.23015C87.5479 8.27748 87.8173 8.50466 87.9188 8.81616C88.0203 9.12767 87.9351 9.46843 87.7011 9.69819Z" fill="#E84A43"/>
<path d="M119.453 9.69819L114.093 14.9232L115.359 22.303C115.414 22.6257 115.281 22.9518 115.016 23.1446C114.867 23.2538 114.688 23.3089 114.51 23.3089C114.373 23.3089 114.236 23.2762 114.11 23.21L107.482 19.7257L100.856 23.2091C100.567 23.3623 100.215 23.3373 99.9495 23.1437C99.6845 22.9509 99.552 22.6248 99.607 22.3021L100.873 14.9224L95.5119 9.69819C95.2778 9.46929 95.1926 9.12681 95.2942 8.81616C95.3957 8.50552 95.665 8.27748 95.9895 8.23015L103.398 7.15451L106.711 0.440797C107.001 -0.146932 107.964 -0.146932 108.254 0.440797L111.567 7.15451L118.975 8.23015C119.3 8.27748 119.569 8.50466 119.671 8.81616C119.772 9.12767 119.687 9.46843 119.453 9.69819Z" fill="#E84A43"/>
</svg>
