<svg width="8" height="8" viewBox="0 0 8 8" fill="none" xmlns="http://www.w3.org/2000/svg">
<g clip-path="url(#clip0_165_3925)">
<path d="M0.413326 8.00002C0.307946 8.00002 0.202566 7.95994 0.122502 7.87927C-0.0382298 7.71854 -0.0382298 7.45795 0.122502 7.29722L7.29917 0.120549C7.45991 -0.0401829 7.72049 -0.0401829 7.88122 0.120549C8.04196 0.281281 8.04196 0.541867 7.88122 0.702699L0.704652 7.87927C0.623985 7.95943 0.518605 8.00002 0.413326 8.00002Z" fill="#3EA4A6"/>
<path d="M7.5905 8.00002C7.48512 8.00002 7.37984 7.95994 7.29968 7.87927L0.122502 0.702699C-0.0382298 0.541867 -0.0382298 0.281281 0.122502 0.120549C0.283234 -0.0401829 0.54382 -0.0401829 0.704652 0.120549L7.88122 7.29722C8.04196 7.45795 8.04196 7.71854 7.88122 7.87927C7.80056 7.95943 7.69528 8.00002 7.5905 8.00002Z" fill="#3EA4A6"/>
</g>
<defs>
<clipPath id="clip0_165_3925">
<rect width="8" height="8" fill="white"/>
</clipPath>
</defs>
</svg>
