<svg width="18" height="18" viewBox="0 0 18 18" fill="none" xmlns="http://www.w3.org/2000/svg">
<g clip-path="url(#clip0_165_2872)">
<path d="M9 0C4.02961 0 0 4.02961 0 9C0 13.9704 4.02961 18 9 18C13.9704 18 18 13.9704 18 9C18 4.02961 13.9707 0 9 0ZM9 14.3023L8.14641 13.6962C7.29035 13.0528 6.75984 12.6496 6.0866 12.0368C5.44254 11.45 4.71973 10.7293 4.27676 9.86555C4.27676 9.86555 4.05527 9.3941 3.95438 8.99086C3.88903 8.70461 3.86207 8.41094 3.87422 8.11758C3.95719 6.46523 5.39824 4.95773 6.88922 4.8716C7.23763 4.85436 7.58518 4.91977 7.90348 5.0625C8.0929 5.14796 8.27098 5.2566 8.43363 5.38594L9 5.87109L9.56637 5.3891C10.01 5.03754 10.5353 4.84629 11.1108 4.87336C12.6018 4.95949 14.0428 6.46629 14.1258 8.11934C14.1379 8.4127 14.111 8.70637 14.0456 8.99262C14.0456 8.99262 13.9163 9.51996 13.7232 9.8673C13.2803 10.7311 12.5575 11.4518 11.9134 12.0386C11.6845 12.2463 11.4757 12.4281 11.2651 12.6032C10.8534 12.9452 10.4319 13.2627 9.85359 13.6976L9 14.3023Z" fill="#3EA4A6"/>
</g>
<defs>
<clipPath id="clip0_165_2872">
<rect width="18" height="18" fill="white"/>
</clipPath>
</defs>
</svg>
